<svg width="23" height="23" viewBox="0 0 23 23" fill="none" xmlns="http://www.w3.org/2000/svg">
<path d="M14.8149 1.23878L7.00114 0.0159804C6.63855 -0.0422481 6.2685 0.0599267 5.99122 0.30163C5.71395 0.551024 5.55078 0.909184 5.55078 1.28272V16.7155C5.55078 17.1187 5.87071 17.4483 6.2621 17.4483H8.57307V13.603C8.57307 12.8922 9.12762 12.3209 9.81761 12.3209H11.5954C12.2854 12.3209 12.8399 12.8922 12.8399 13.603V17.4483H15.8611V2.50662C15.8601 1.876 15.4186 1.34205 14.8149 1.23878V1.23878ZM9.46142 10.6729H8.39498C8.10064 10.6729 7.86176 10.4268 7.86176 10.1236C7.86176 9.82034 8.10064 9.57425 8.39498 9.57425H9.46142C9.75576 9.57425 9.99464 9.82034 9.99464 10.1236C9.99464 10.4268 9.75576 10.6729 9.46142 10.6729ZM9.46142 8.47559H8.39498C8.10064 8.47559 7.86176 8.2295 7.86176 7.92627C7.86176 7.62304 8.10064 7.37694 8.39498 7.37694H9.46142C9.75576 7.37694 9.99464 7.62304 9.99464 7.92627C9.99464 8.2295 9.75576 8.47559 9.46142 8.47559ZM9.46142 6.27829H8.39498C8.10064 6.27829 7.86176 6.03219 7.86176 5.72897C7.86176 5.42574 8.10064 5.17964 8.39498 5.17964H9.46142C9.75576 5.17964 9.99464 5.42574 9.99464 5.72897C9.99464 6.03219 9.75576 6.27829 9.46142 6.27829ZM9.46142 4.08099H8.39498C8.10064 4.08099 7.86176 3.83489 7.86176 3.53166C7.86176 3.22844 8.10064 2.98234 8.39498 2.98234H9.46142C9.75576 2.98234 9.99464 3.22844 9.99464 3.53166C9.99464 3.83489 9.75576 4.08099 9.46142 4.08099ZM13.0159 10.6729H11.9494C11.6551 10.6729 11.4162 10.4268 11.4162 10.1236C11.4162 9.82034 11.6551 9.57425 11.9494 9.57425H13.0159C13.3102 9.57425 13.5491 9.82034 13.5491 10.1236C13.5491 10.4268 13.3102 10.6729 13.0159 10.6729ZM13.0159 8.47559H11.9494C11.6551 8.47559 11.4162 8.2295 11.4162 7.92627C11.4162 7.62304 11.6551 7.37694 11.9494 7.37694H13.0159C13.3102 7.37694 13.5491 7.62304 13.5491 7.92627C13.5491 8.2295 13.3102 8.47559 13.0159 8.47559ZM13.0159 6.27829H11.9494C11.6551 6.27829 11.4162 6.03219 11.4162 5.72897C11.4162 5.42574 11.6551 5.17964 11.9494 5.17964H13.0159C13.3102 5.17964 13.5491 5.42574 13.5491 5.72897C13.5491 6.03219 13.3102 6.27829 13.0159 6.27829ZM13.0159 4.08099H11.9494C11.6551 4.08099 11.4162 3.83489 11.4162 3.53166C11.4162 3.22844 11.6551 2.98234 11.9494 2.98234H13.0159C13.3102 2.98234 13.5491 3.22844 13.5491 3.53166C13.5491 3.83489 13.3102 4.08099 13.0159 4.08099Z" fill="#232536"/>
<path d="M21.9691 8.1871L16.6543 7.1377V17.448H21.6925C22.4124 17.448 22.9991 16.8959 22.9991 16.216V9.39064C22.9991 8.80893 22.5782 8.31379 21.9691 8.1871ZM20.2001 15.3366H19.0805C18.7715 15.3366 18.5207 15.1001 18.5207 14.8087C18.5207 14.5173 18.7715 14.2808 19.0805 14.2808H20.2001C20.5091 14.2808 20.7599 14.5173 20.7599 14.8087C20.7599 15.1001 20.5091 15.3366 20.2001 15.3366ZM20.2001 13.2251H19.0805C18.7715 13.2251 18.5207 12.9886 18.5207 12.6972C18.5207 12.4058 18.7715 12.1693 19.0805 12.1693H20.2001C20.5091 12.1693 20.7599 12.4058 20.7599 12.6972C20.7599 12.9886 20.5091 13.2251 20.2001 13.2251ZM20.2001 11.1136H19.0805C18.7715 11.1136 18.5207 10.8771 18.5207 10.5857C18.5207 10.2944 18.7715 10.0579 19.0805 10.0579H20.2001C20.5091 10.0579 20.7599 10.2944 20.7599 10.5857C20.7599 10.8771 20.5091 11.1136 20.2001 11.1136Z" fill="#FFD050"/>
</svg>
